# xmcd
#
# Track frame offsets:
# 150
# 24470
# 36594
# 50159
# 66621
# 81024
#
# Disc length: 1323 seconds
#
# Revision: 0
# Processed by: cddbd v1.5.1PL0 Copyright (c) Steve Scherf et al.
# Submitted via: Audion 3.0.2 (http://www.panic.com/audion/)
#
DISCID=55052906
DTITLE=The Great Disconnect - Undead
DYEAR=1900
DGENRE=
TTITLE0=Reefer Madness
TTITLE1=Skip the G
TTITLE2=Kid or Goalie Pad
TTITLE3=Spaceship
TTITLE4=Travellin'
TTITLE5=Join the Riot
EXTD=
EXTT0=
EXTT1=
EXTT2=
EXTT3=
EXTT4=
EXTT5=
PLAYORDER=
